<?xml version="1.0" encoding="utf-8" ?>
<svg baseProfile="full" height="1000px" version="1.1" viewBox="0 0 1000 1000" width="1000px" xmlns="http://www.w3.org/2000/svg" xmlns:ev="http://www.w3.org/2001/xml-events" xmlns:xlink="http://www.w3.org/1999/xlink"><defs /><path d="M 130.0 511.0509090438842 C 128.625 510.6157511232837 124.575 509.72095226790225 121.0 509.06246714303654 C 104.92535881778359 506.10165256791964 83.12148384690582 496.93953468256916 67.79519260341922 486.7054907759492 C 35.30942986067166 465.0133072615192 11.446760411416772 430.39444814027104 3.5489443532295084 393.5 C 2.607057635642501 389.1 1.4232278626075343 383.8727911982749 0.9182115242629152 381.8839804406109 C -0.5369742356214366 376.15329635394556 -0.2778663551173306 375.0 2.464816241512011 375.0 C 5.191800569306354 375.0 7.000000000000044 377.51059536958746 7.0 381.29687807164066 C 6.99999999999996 384.7028035415496 10.57879104141881 398.69952066473274 13.644543053434319 407.2838073042734 C 24.531330201501575 437.76745408861876 45.10582529630524 464.13970845965883 71.63696886787162 481.6181225875814 C 80.61413219895348 487.53217517907274 93.30956039076678 494.37391620072935 99.5 496.6338936355645 C 111.04394309204649 500.8483036845914 123.52363303276648 504.31127339895556 131.16142689474964 505.4195736461168 C 135.65335440778338 506.07138547331283 137.0 507.26203126370035 137.0 510.5817874682358 C 137.0 512.1297872877833 134.03654901794528 512.3283899726488 130.0 511.0509090438842 Z" fill="black" stroke="none" /><path d="M 375.0 510.5817874682358 C 375.0 507.2620312637003 376.3466455922166 506.07138547331283 380.83857310525036 505.4195736461168 C 386.0282601396847 504.6665117637345 397.1196942090424 501.8743716063006 404.0 499.5889524900155 C 413.20531277735085 496.5312398778246 416.6912197112099 495.0739463767017 424.36303113212836 491.0761282824103 C 464.8499700813569 469.9781882740886 492.08602010544615 435.61240293658943 502.9663071406185 391.896426830004 C 504.0848382132783 387.4022735518047 505.0 382.6324766105411 505.0 381.2968780716406 C 505.0 377.5105953695863 506.80819943069287 375.0 509.53518375848796 375.0 C 512.2778663551172 375.0 512.5369742356214 376.15329635394573 511.0817884757371 381.88398044061097 C 510.5767721373925 383.8727911982749 509.3929423643575 389.1 508.4510556467705 393.5 C 502.02643801382027 423.5124389240784 483.8724842037122 453.9789417142236 460.17876906936294 474.5119805900576 C 440.9431795946384 491.1815954750408 416.82368386057954 503.4582674573437 393.5 508.4510556467705 C 389.1 509.3929423643575 383.87279119827485 510.5767721373924 381.88398044061074 511.0817884757371 C 376.83721726828435 512.3633070153764 375.0 512.2298652525669 375.0 510.5817874682358 Z" fill="black" stroke="none" /><path d="M 131.8707511456035 463.43959458195 C 118.0360897685551 460.9354527624036 104.14308033580396 455.5364139396738 94.31982473281138 448.84672249664067 C 92.02072833585763 447.2810251234883 89.88322833585764 446.0 89.56982473281137 446.0 C 89.2564211297651 446.0 88.17730690673474 445.2125 87.17179312607723 444.25 C 86.16627934541972 443.2875 83.12877934541973 440.42235889179295 80.42179312607723 437.88301975953993 C 63.82193281208754 422.3112098315651 55.76239426237169 408.6979025781755 49.196660214020156 385.14087754660284 C 47.81851146694816 380.19625379350447 47.577346697207666 364.9969692107487 47.24280237173324 262.0 C 46.82506885886228 133.39137481273158 46.804206199818225 133.9575919475606 52.61411029487203 116.22152679092142 C 56.77940360488075 103.50601336175461 57.54460746919064 102.0215818875883 66.08945265503083 90.08049005866903 C 73.16471919216754 80.1930777537588 83.21290052798032 70.48852595184358 92.97739828929679 64.11206328229184 C 96.01482923018355 62.12854446961563 98.725 60.22968031378906 99.0 59.89236515823279 C 101.20061450130602 57.19309016613306 120.72985992032572 50.58050222822101 132.62988294726995 48.50531186666356 C 145.54104610472098 46.25379342168472 366.45895389532274 46.253793421687654 379.3701170527505 48.50531186666683 C 391.27014007970354 50.58050222822985 410.79938549869746 57.193090166135626 413.0 59.89236515823336 C 413.275 60.22968031378991 415.9851707698167 62.128544469615846 419.0226017107037 64.11206328229099 C 428.78709947199724 70.48852595182366 438.83528080783685 80.19307775376569 445.9105473449712 90.08049005867196 C 454.4553925308089 102.02158188758716 455.2205963951213 103.50601336175825 459.3858897051275 116.22152679091829 C 465.19579380018206 133.95759194756073 465.17493114113785 133.39137481272695 464.7571976282669 262.0 C 464.34443413520955 389.0784931876083 464.699275839875 380.6789096336402 459.0481503819941 397.14087754660744 C 456.86535292079105 403.49945904239087 450.53081897074094 415.8713643117829 446.59067033334117 421.4714382907101 C 443.76750525614915 425.48396034049574 437.5490439258864 432.28196421296127 431.5782068739229 437.8830197595395 C 428.87122065458055 440.4223588917928 425.83372065458053 443.2875 424.8282068739229 444.25 C 423.82269309326534 445.2125 422.74357887023484 446.0 422.4301752671886 446.0 C 422.11677166414233 446.0 419.9792716641423 447.2810251234883 417.6801752671886 448.84672249664067 C 407.5438535918648 455.749613667933 393.9144096782646 460.9583757410116 379.3363429272183 463.50057784796763 C 367.08545596139425 465.6369537603884 143.70640485250536 465.58190617175813 131.8707511456035 463.43959458195 Z" fill="black" stroke="none" /><path d="M 382.5 457.28798387103666 C 402.2802341952111 451.96506171686593 416.07136626046054 444.07588312402515 430.07362469224245 430.0736246922428 C 444.27901988588076 415.86822949860385 452.2291457835001 401.84063486763114 457.3193057026102 382.0 C 459.49963174850643 373.5014353858306 459.5 373.4801579017539 459.5 256.0 C 459.5 138.51984209824062 459.49963174850654 138.49856461416982 457.3193057026099 130.0 C 452.2291457834967 110.15936513235941 444.27901988588326 96.13177050139646 430.07362469224324 81.92637530775718 C 415.86822949860033 67.7209801141149 401.84063486764046 59.770854216503146 382.0 54.68069429739003 C 373.50143538583023 52.50036825149348 373.4801579017584 52.5 256.0 52.5 C 138.5198420982436 52.5 138.49856461416962 52.50036825149351 130.0 54.68069429738992 C 110.15936513236986 59.77085421650011 96.1317705013952 67.72098011412044 81.92637530775677 81.92637530775761 C 67.72098011411697 96.13177050139616 59.77085421650355 110.15936513235896 54.68069429739011 130.0 C 52.500368251493455 138.49856461416985 52.5 138.51984209824025 52.5 256.0 C 52.5 373.48015790175776 52.50036825149349 373.5014353858303 54.68069429739 382.0 C 59.497174190513384 400.77387359638107 67.52586160713531 415.3717310262696 80.43571078450645 428.8280852490261 C 91.89258163339107 440.76995306706357 104.9131843533098 449.1436084766883 120.14006004166777 454.3622748786853 C 136.50900551822127 459.9723598063452 133.71539247345228 459.86608475390256 259.0 459.64480583940303 C 373.7683441539657 459.4421008534141 374.55067746119715 459.4271711341828 382.5 457.28798387103666 Z" fill="black" stroke="none" /><path d="M 241.26509489687595 388.0374414168999 C 197.76868782105078 383.04768741803656 159.18584192833788 356.70851409599805 138.61059914442984 317.9587706151483 C 127.87349830386174 297.73738573674353 123.69713672981007 280.38647006212994 123.69713672981007 256.0 C 123.69713672981007 242.90097291750894 124.1429081294615 237.39504558361412 125.85982025380476 229.28770230966543 C 131.20574186913223 204.04399819891435 142.65554105741765 182.56038822997144 160.6965324210852 163.92250904340221 C 179.84562821678227 144.13986368994378 202.60420018321065 131.51065145371928 229.2877023096667 125.85982025380437 C 243.77660809070989 122.79146886379063 268.2233919092902 122.79146886379064 282.7122976903324 125.8598202538044 C 307.95600180108545 131.20574186913248 329.4396117700278 142.65554105741765 348.0774909565989 160.69653242108674 C 367.86013631005187 179.84562821677812 380.48934854628004 202.60420018321327 386.14017974619514 229.28770230966603 C 389.2085311362093 243.77660809070875 389.20853113620933 268.2233919092907 386.14017974619526 282.7122976903342 C 376.5504509341019 327.995467563371 344.4996033048176 364.9611870100898 300.88324521026743 381.04304885782693 C 284.50417700488333 387.08220305549395 259.0104393543924 390.0731245783561 241.26509489687595 388.0374414168999 Z" fill="black" stroke="none" /><path d="M 276.83927313665896 381.39382351813913 C 281.4258733618214 380.5733521015135 289.2652345295368 378.5328909452428 294.26007573158216 376.85946539309316 C 303.70648533529493 373.6946273997549 321.6747012918149 364.8833601457552 325.0003964330008 361.78500380885475 C 326.05418360811467 360.80325171398465 327.15629527491103 360.0 327.44953347032606 360.0 C 331.22375318163296 360.0 360.0 330.89236410953407 360.0 327.0746802461464 C 360.0 326.5752727774326 360.4025225418887 326.0166666666667 360.89449453753036 325.83333333333337 C 362.9413661224413 325.0705667655381 373.37921067357854 304.56357349155707 376.936942196073 294.315105156992 C 383.3662269492479 275.7947865803347 384.8937368243627 253.22212958208885 381.0392057722178 233.6942279179782 C 379.86610731996547 227.75105327286622 378.42135173844804 221.67605327286623 377.82863781329013 220.1942279179782 C 377.2359238881323 218.7124025630902 376.4064408801649 216.6 375.98534224002935 215.5 C 368.03776779355724 194.73923029458317 360.55973908656046 182.87577358685536 346.08197405918474 168.06004921500656 C 337.36226213946094 159.13679012354655 326.4710871587087 149.99999999999997 324.5541559193408 150.00000000000006 C 324.1338971962385 150.00000000000009 321.7668265742859 148.63454354874784 319.29399898166844 146.96565233055065 C 308.786540436333 139.87425406880635 294.23026650522525 134.11719746847845 278.7122976903341 130.91544934745576 C 250.26359473267252 125.04576483353807 215.60022851008083 131.51452451135157 192.7060010183357 146.96565233054878 C 190.23317342571605 148.63454354874696 187.86610280376163 149.99999999999997 187.44584408065927 149.99999999999994 C 185.5289128412928 149.99999999999986 174.63773786053284 159.13679012355288 165.91802594081634 168.0600492150055 C 151.4402609134407 182.87577358685428 143.96223220644228 194.73923029458453 136.0146577599707 215.5 C 135.5935591198351 216.6 134.76407611186775 218.7124025630902 134.17136218670993 220.1942279179782 C 133.57864826155208 221.67605327286623 132.13389268003462 227.75105327286622 130.96079422778223 233.6942279179782 C 127.10626317563708 253.2221295820896 128.6337730507517 275.7947865803329 135.0630578039271 294.31510515699233 C 138.6207893264224 304.56357349155985 149.05863387755818 325.0705667655376 151.1055054624698 325.83333333333337 C 151.59747745811143 326.0166666666667 152.0 326.5752727774326 152.0 327.0746802461464 C 152.0 330.8923641095342 180.77624681836693 360.0 184.55046652967394 360.0 C 184.84370472508894 360.0 185.9458163918853 360.80325171398465 186.9996035669992 361.78500380885475 C 190.3252987081857 364.8833601457557 208.29351466470337 373.6946273997543 217.73992426841787 376.85946539309316 C 238.28213098511299 383.7417369662477 256.080265599005 385.1072869738643 276.83927313665896 381.39382351813913 Z" fill="black" stroke="none" /><path d="M 235.0 339.49312668548714 C 225.19591546458776 337.5037397573822 206.51262427651443 328.8250217137034 202.5 324.396303883752 C 201.95 323.78927101981566 200.57117574326938 322.66427101981566 199.43594609615417 321.896303883752 C 196.1157273431832 319.65022187443935 185.9928523964473 307.91112726651176 183.10922154988447 302.96285216230854 C 173.65700702003218 286.7429681596777 171.0 276.5775813837834 171.0 256.6344383939182 C 171.0 242.5703775037647 172.00471281111643 234.94269941932788 175.0351483603544 226.0 C 177.10581610518165 219.88953866913835 183.14969421935393 207.7450878464568 185.18632464063626 205.60242433758322 C 185.9088460882863 204.84228625652503 189.3842155548414 200.7957752019541 192.90936789964758 196.6101775496478 C 196.43452024445375 192.4245798973415 199.69597861761153 188.99999999999997 200.15705317333152 188.99999999999994 C 200.61812772905154 188.99999999999994 203.1641568876408 187.44188216192825 205.81489574797428 185.53751591539617 C 212.70868554413266 180.58482110454648 224.23709264860946 175.35365811098177 233.40996253387584 173.0158994538038 C 244.61577791306033 170.16003294298542 267.3842220869397 170.16003294298542 278.59003746612416 173.0158994538038 C 287.7629073513932 175.35365811098245 299.29131445586637 180.58482110454537 306.18510425202476 185.53751591539537 C 308.83584311235865 187.4418821619279 311.3818722709483 188.99999999999997 311.84294682666837 188.99999999999997 C 312.3040213823884 188.99999999999997 315.5654797555462 192.42457989734143 319.0906321003524 196.61017754964763 C 322.61578444515857 200.79577520195386 326.0911539117138 204.84228625652491 326.8136753593639 205.60242433758327 C 328.85030578064675 207.74508784645764 334.8941838948179 219.88953866913698 336.9648516396457 226.0 C 339.99528718888274 234.94269941932453 341.0 242.5703775037682 341.0 256.6344383939193 C 341.0 276.5775813837773 338.3429929799555 286.7429681597192 328.89077845011633 302.96285216230945 C 326.0071476035472 307.911127266518 315.88427265681406 319.65022187444123 312.56405390384583 321.896303883752 C 311.42882425673065 322.6642710198156 310.05 323.7892710198156 309.5 324.396303883752 C 305.27113148473 329.0636896401789 286.6276411682137 337.55484097242754 276.16203179092815 339.5800344174142 C 267.04255476786216 341.34473864275094 243.88413535095498 341.29584295857376 235.0 339.49312668548714 Z" fill="black" stroke="none" /><path d="M 278.5 333.00115309084583 C 305.7515542285152 324.3167280673288 324.5426418372115 305.39485300320285 333.1559862827768 277.9647568222939 C 335.1636932832345 271.57100391090387 335.5 268.41961652900386 335.5 256.0 C 335.5 243.58038347099523 335.16369328323464 240.42899608909644 333.1559862827763 234.03524317770496 C 324.47694905377756 206.39594145772244 305.6040585422759 187.52305094622082 277.96475682229436 178.84401371722322 C 271.571003910904 176.83630671676548 268.4196165290038 176.5 256.0 176.5 C 243.5803834709953 176.5 240.42899608909647 176.8363067167654 234.0352431777053 178.8440137172236 C 206.39594145772202 187.52305094622287 187.52305094622116 206.39594145772364 178.84401371722333 234.03524317770535 C 176.83630671676548 240.4289960890961 176.5 243.580383470996 176.5 256.0 C 176.5 268.419616529004 176.83630671676548 271.5710039109038 178.84401371722325 277.96475682229413 C 188.23696542861 307.87759387348433 210.89141371573064 328.63124872157914 241.07518556782554 334.9744992362872 C 249.05099130647744 336.6506493909077 270.61612654761905 335.5135568722219 278.5 333.00115309084583 Z" fill="black" stroke="none" /><path d="M 380.92934855681557 155.68388647529088 C 366.1124540863521 151.52267546933362 357.0296697710982 139.9805116038789 357.009768915704 125.28751260711027 C 356.9914624086312 111.77163679538313 362.9097970341721 101.69970360179863 374.1791462092796 96.06834336141469 C 379.53031019958127 93.3943351585877 381.37078744919114 92.99999999999999 388.5 93.0 C 395.61044446087925 93.0 397.4753842814095 93.3971807243203 402.7566944025243 96.03628253677255 C 414.5495746868999 101.92925435982444 420.3913358014974 111.3253590304238 420.45320201741487 124.5 C 420.48493854180856 131.258411005242 420.0615123664036 133.3755540884295 417.7249163950859 138.1415067602958 C 414.5533527722855 144.61054218945293 407.7476005198329 151.34289258559713 401.67567003305567 154.0176577124983 C 396.00130307578036 156.517290883137 386.5886633789391 157.27326157483972 380.92934855681557 155.68388647529088 Z" fill="black" stroke="none" /><path d="M 399.5637811613351 147.50145611091096 C 403.0045707561999 145.57725697191196 407.05489530860814 142.53975697191197 408.56450238890903 140.75145611091096 C 414.92958616369975 133.2112922210245 416.7061712947926 123.3527779255741 413.1218627431999 115.46203911874123 C 409.19758607265794 106.82287154505809 396.77078610805165 98.01953783140797 388.5 98.01953783140797 C 375.24590787969913 98.01953783140797 360.41291138945445 114.67343049469655 362.4303086845862 127.289540100842 C 363.15359848347566 131.81274601661096 367.2802183351502 140.03863142165042 370.11140813621364 142.60082297759146 C 371.11102634040066 143.5054650192415 374.7573942296472 145.748199000853 378.214447890095 147.58467627006144 C 386.7521348561634 152.12011875514312 391.33679710754603 152.10224764332133 399.5637811613351 147.50145611091096 Z" fill="black" stroke="none" /><path d="M 8.42399632622528e-17 135.36601955938926 C 1.3057194305649183e-16 134.46733031705338 0.41319518591832227 132.10483031705337 0.9182115242629384 130.11601955938926 C 1.4232278626075545 128.12720880172517 2.607057635642503 122.9 3.54894435322949 118.5 C 9.97356198617935 88.4875610759224 28.127515796288073 58.02105828577612 51.82123093063719 37.48801940994224 C 71.05682040536149 20.818404524959153 95.17631613941992 8.541732542656543 118.5 3.5489443532295155 C 122.9 2.607057635642504 128.12720880172506 1.423227862607547 130.11601955938903 0.9182115242629436 C 136.14160189435 -0.6118573953009312 137.17185318346887 -0.3350959559751394 136.816422345697 2.7181734741161137 C 136.472814365284 5.669880616656589 137.14434561384073 5.396324495019408 122.5 8.550135845228098 C 115.02037915601753 10.160949584198761 106.58203950362241 13.11644617787141 91.0159200653851 19.577315934531605 C 83.59338662638861 22.658110862521823 70.78489468447695 30.383093521692665 64.66731556179963 35.468531997019134 C 49.17253429099449 48.349077595395414 45.841208609106324 51.40638854374021 44.52263101597016 53.95623644085749 C 43.70716141340454 55.53318076486912 41.939553040597346 57.68898740177073 40.59461240973194 58.74691785619439 C 37.815432442495045 60.93302113703008 26.999999999999993 75.66198694397171 27.0 77.26070197034798 C 27.0 77.83848592124625 25.945351630864877 79.70369413964906 24.656336957477507 81.40560912235424 C 19.348353490621953 88.41385873867029 10.247527297435735 112.62098138727251 7.575409322044573 126.83885896646143 C 6.713443241106319 131.42523139801523 5.754796008521005 135.58773139801522 5.445082138521654 136.08885896646143 C 4.43575379248469 137.72198653615794 -6.863852708260264e-18 137.13313634809663 8.42399632622528e-17 135.36601955938926 Z" fill="black" stroke="none" /><path d="M 506.5549178614783 136.08885896646143 C 506.245203991479 135.58773139801522 505.28655675889365 131.42523139801523 504.4245906779554 126.83885896646143 C 501.7524727025644 112.62098138727286 492.65164650937817 88.41385873867053 487.3436630425225 81.40560912235424 C 486.0546483691351 79.70369413964906 485.0 77.83848592124625 485.0 77.26070197034798 C 485.0 75.66198694397163 474.18456755750503 60.93302113703018 471.405387590268 58.746917856194386 C 470.0604469594026 57.68898740177072 468.2928385865954 55.53318076486911 467.4773689840298 53.95623644085748 C 466.1587913908936 51.40638854374024 462.8274657090166 48.34907759540563 447.3326844382008 35.46853199701915 C 441.21510531552553 30.383093521694022 428.406613373612 22.658110862522175 420.9840799346148 19.57731593453161 C 405.4179604963807 13.116446177872657 396.9796208439814 10.160949584198535 389.5 8.550135845228084 C 374.85565438615987 5.396324495019501 375.527185634716 5.669880616656423 375.1835776543029 2.7181734741161137 C 374.82814681653093 -0.33509595597506525 375.85839810565005 -0.611857395300917 381.8839804406109 0.9182115242629294 C 383.8727911982749 1.4232278626075405 389.1 2.607057635642504 393.5 3.5489443532295155 C 449.4058776817895 15.51644517675716 496.48355482324325 62.59412231821104 508.4510556467705 118.5 C 509.3929423643575 122.9 510.5767721373924 128.12720880172517 511.0817884757371 130.11601955938926 C 512.5337142546415 135.83386547677154 512.2757593678251 137.0 509.55901699437493 137.0 C 508.2164763412812 137.0 506.8646317314777 136.58998653490764 506.5549178614783 136.08885896646143 Z" fill="black" stroke="none" /></svg>